<mxfile host="www.draw.io" modified="2019-12-12T06:54:03.753Z" agent="Mozilla/5.0 (X11; Linux x86_64) AppleWebKit/537.36 (KHTML, like Gecko) Chrome/78.0.3904.70 Safari/537.36" etag="9VhHseB87_BMNJfuYMjC" version="12.3.9" type="github" pages="1">
  <diagram id="TCKHLjNjjjJnPYdJ2Sa8" name="Page-1">
    <mxGraphModel dx="1064" dy="570" grid="1" gridSize="10" guides="1" tooltips="1" connect="1" arrows="1" fold="1" page="1" pageScale="1" pageWidth="827" pageHeight="1169" math="0" shadow="0">
      <root>
        <mxCell id="0"/>
        <mxCell id="1" parent="0"/>
        <mxCell id="-RRnOlOg4LKk6MgqfMpy-12" style="rounded=0;orthogonalLoop=1;jettySize=auto;html=1;entryX=0.5;entryY=0;entryDx=0;entryDy=0;entryPerimeter=0;" edge="1" parent="1" source="-RRnOlOg4LKk6MgqfMpy-2" target="-RRnOlOg4LKk6MgqfMpy-6">
          <mxGeometry relative="1" as="geometry"/>
        </mxCell>
        <mxCell id="-RRnOlOg4LKk6MgqfMpy-17" value="redolog always write to lasted redo" style="text;html=1;align=center;verticalAlign=middle;resizable=0;points=[];;labelBackgroundColor=#ffffff;" vertex="1" connectable="0" parent="-RRnOlOg4LKk6MgqfMpy-12">
          <mxGeometry x="-0.2571" y="3" relative="1" as="geometry">
            <mxPoint as="offset"/>
          </mxGeometry>
        </mxCell>
        <mxCell id="-RRnOlOg4LKk6MgqfMpy-2" value="" style="shape=image;html=1;verticalAlign=top;verticalLabelPosition=bottom;labelBackgroundColor=#ffffff;imageAspect=0;aspect=fixed;image=data:image/png,iVBORw0KGgoAAAANSUhEUgAAAb8AAAGbCAIAAADbTAkFAAAAAXNSR0IArs4c6QAAAARnQU1BAACxjwv8YQUAAAAJcEhZcwAAEnQAABJ0Ad5mH3gAABfSSURBVHhe7dhb0uSqkkThHlLPqec/ht1hJSuZyjOFuEQogVif+VMlhID/bH84//MfAKAd7QkAPWhPAOhBewJAD9oTAHrQngDQg/YEgB60JwD0oD0BoAftCQA9aE8A6EF7AkAP2hMAetCeA/73//4JgExoz15SnXcBsCnas5e0ZFMArI/27CWFOB4AS6E9u0jxRQTA3GjPLtJ0QQEwMdqzi9RcUABMjPZsJx0XFwAToz3bSccFBcDcaM92UnNBATA32rORdFxcAMyN9mwkHRcUANOjPRtJzQUFwPRozxbScXEBMD3as4V0XFAArID2bCE1FxQAK6A9q0nHxQXACmjPatJxQQGwCNqzmtRcUAAsgvasIx0XFADroD3rSM0FBcA6aM86UnNBAbAO2rOCdFxQACyF9qwgNRcUAEuhPStIzQUFwFJozyfScUEBsBra84nUXFAArIb2fCI1FxEAC6I9i6TmggJgQbRnkdRcUAAsiPYskpqLCIA10Z73pOaCAmBNtOc9qbmgAFgT7XlPai4iAJZFe96QmgsKgGXRnjek5oICYFm05w2puYgAWBnt+Y3UXFAArIz2/EZqLiIAFkd7fiNNFxEAi6M9P0jNBQXA4mjPD1JzEQGwPtrzgzRdRACsj/b8l9RcUACsj/b8l9RcRABsgfb8lzRdRABsgfa8kJqLCIBd0J4X0nQRAbAL2vNCmi4iAHZBe/4lNRcRABuhPf+SposIgI3Qnn9J00UEwEZozz+k5iICYC+05x/SdBEBsBfa8w9puogA2AvtSXUC6EF70p4AetCe8e0JYEfp21OaLiIAdkR7fpSdewDsiPb8KDvfANhU7vaUposIgE3RnsEBsCnaMzIA9pW4PaXpIgJgX7RnWABsjfYMC4CtZW1PabqIANga7RkTALujPWMCYHcp21OaLiIAdkd7BgRAArRnQAAkkK89pekiAiAB2tM7AHKgPb0DIIdk7SlN5x4AadCergGQBu3pGgBpZGpPaTr3AMiE9vQLgExoT78AyCRNe0rTuQdAMrSnUwAkQ3t6BEA+OdpTys49APKhPT0CIB/aczgAUkrQnlJ27gGQEu05HIyTJ/0aYDK051jQR56xI8Cv7d6e8p+ce9BEXs8lwI/QnmNBDXm0oADvoj0HgkfyYi8EeMvW7Sn/XbkHBfJW5dSQLY/BlTzONehFe/YGd+ShvmacDLxLZvIUNUEL2rM3+CRP9JkI8onPJCQv0BrU2bc95X8Q7sGVPM5nosnnPpOE3HokeEJ7dgVX8jiSN8mnJduT+44HRbRnV3CSl7nmV+QY1+xKrvk1X8mar8GNTdtT/vzugZE3uWYGcqRrNiO3k9STjdfgG9qzPTDyJtdMRc52ZhtyrzPdZM4ZfKA92wN5kDNzkkOe2YDc6MwgmXYG/9qxPeVP7hvIg5yZmRz1zNLkLkccyeQjuKA9G5OcvMaZJciZjyxKbnHEncw/gr9oz8ZkJk9xZC1y+CPLkfMfCSJfOYI/tmtP+TP7JjN5iiMrkiscWYic/Ego+dYR0J5tSUve4ci65CJHliBnPvIC+eKR9GjPluQkj3BkdXKdI/OTA1teI989ktte7Sl/Wt+kJe9g2YNc6sjM5KiWl8nXLbnRntXJSR7BshO5mmVack7LT8gZLInRntVJSF7Ash+5oGVOckjLr8gxLFlt1J7yF/VNQvICll3JNS1evAaec878kJzEkhXtWZds5PpHdiXXPDLOa6DMsfycnMeSEu1ZkYTkBSx7k8taBsk0SzeZY+njMuTkO21Nu7Sn/C19k41c35KBXNkyQkZZ+sgQSweZcE03mWPJh/asSCpyd0secnFLHxlypM/gENl+lz4uQ1ZGez4lG7m+JQ+5uKWDTDjSR4ZYmsjecjrIBEsyW7Sn/Al9k4rc3ZKNXN/SRPae6TMyRPbWpMP4hJXRnk9JJfPdTyOPIHvPdJAJliaytzKtZLslE9qzmFTk7pac5BEslWTXNR1GJsje+nQYn7Cs9dtT/ni+SSXz3UXHU8iWazrIBEs92diaVrLdkgbteZ9U5O6WzOQpLGWyWNJhZILs7Uirwe3Loj3vk4dc3AJ5EMsdWfaZVrLdUk829qWVbLfksHh7yt/MN3nIxS2QB7HckWWfaTWyXfb2pcP4hAXRnjdJJfPdC2qeRdZ8pkP3BNk4klaD29dEe94kD7m4BQd5FouQXy2f/9hKtlvqycaRtJLtlgRWbk/5a/kmj7QXr1F4HPnpyOe/t+reLhvH02pw+4Joz2/JQy5uwZU8juUk//41HbonyMbxtBrcviDa81vySHvxel+fSP7xLq1ku6WebHRJE9lr2d2y7Sl/J98kIbe24JM8UVNadW+XjV5pNbh9NbTnR/JY5eJyzrvEkQ/Vp1X3dtnolVaD21dDe34kj2kvLgfriyOZXJkO3RNko1dayXbL1tZsT/kLOSYPubjlt+Qwvhkk0yrTqnu7bPRNq8HtS6E9/00ek1xcjhGdbjKnJq26t8tG37Qa3L4U2vPf5PHzi8sB3kwHmVCTVt3bZaNvWg1uX8qC7Sl/HsfkIRe3vEk+/ZhKsusx9WRjTVrJdks92eibVrLdsi/a85I8fnVx+W4hg2RaITVkS01adW+XjRFpNbh9HbTnJXm8f3H54tdUat0l67+mQFZWplX3dtkYkVaD29exWnvKH8YxecjFLdHkc5Imsvdr7sgyyVeypj6turfLxoi0Gty+Dtrzb/J4+eLyuWs6yIT6nOTfrxHya306dE+QjRFpNbh9HbTnn6Ty2t3lQ9d0kzkRGf9Qq5HtsjcorQa3L2Kp9pQ/iWNSeefu8pUz42RgRAa/0qp7u2yMS6vB7YugPf8kD7m4JYJ84owjmTxVWnVvl41xaTW4fRG057Z/2u9euLt84ow7mT9JOnRPkI1xaTW4fRHrtKf8PRyTSvTdZf6RUPKtn6dD9wTZGJdWg9sXQXtu+6f9LvTuMvzIC+SLv02H7gmyMS6tZLtlR+nbM5u468vkI2+ST/8qrUa2y964dBifML1F2lP+Eo5JRe5u8SJjj7xPDvB+OoxMkL1x6TA+YXq0ZyZxd5fJlh+Sk7yZDiMTZG9oWg1uX0Hu9swm6Poy1vJzcp7X0qF7gmyMTqvB7StYoT3lz+CYbCKuLzMt85CDvZAO3RNkY3RaDW5fQeL2TCjiBWSmZSpyttD06R4iG6PTanD7CmjPTNxfQAZa5iSHDEqf7iGyMTqtBrevYPr2lL+BYxJyfwH3gXHkqBHpMDJB9kanw/iEuWVtz5x8H0GmWeYnB3ZMn5Ehsjc6HcYnzI32TMP3BWSaZRVybK/0GRkie6PTYXzC3OZuT3l9xyTk+wIyzbIWOfx4+owMkb3R6TA+YW4p2zMn30fwnfYrcouR9BkZInuj02F8wtxozzQcH0FGWdYlF+lLt5E5sjc6HcYnzG3i9pSnd0xOjo/gOGoScqPWdBuZI3uj02F8wtzytWdaju/gOGoecqmmdBuZI3uj02F8wtxozzS83kHmWHYiV7um8Gu3kTmyNzodxifMbdb2lHf3SmZeT+E1Z1pywZp0G5kje6PTYXzC3GjPNLyewmvO5OSa5XQbmSN7o9NBJlj2Qnum4fUUXnPmJzctpNvIHNkbnQ4ywbKXKdtTXtwryXm9htecVch9v6bbyBzZG50OMsGyF9ozDZfXcBmyHLn1Z7qNzJG90ekgEyx7oT3TcHkNlyGLkrtf021kjuyNTgeZYNnLfO0pz+0VuDyIy5B1yfXPdBuZI3uj00EmWPZCe6bh8iAuQ5YmL3Ck2+Ac2R6aDjLBspcc7Qnj8iYuQ5YmL3Ck2+Ac2R6XPjLEspfJ2lPe2iswLm/iMmRp8gJHug3Oke1x6SNDLHuhPdNweROXIUuTFzjSbXCObI9LHxli2UuC9sRp/GXGJ6xOXsAyYnCUbI9LHxli2ctM7SkP7RWcxl9mfMLq5AUsg0amyd649JEhlr3QnpmMv8z4hNXJC1gGjUyTvXHpI0Mse9m9PXE1/jgywZKNXN8yaGSa7I1LHxli2cs07Smv7BVcuTyOy5BFyd2PDBqcJtuD0keGWPZCe2bi8jguQxYldz8yaHCabI9IN5lj2cvW7Qnh8j4uQxYldz8yaHCabI9IN5lj2csc7SlP7BUIeR9LB5lgyUMufmTQ4DTZHpFuMseyl33bE1+5vJLLkOXIrY+MGxwo2yPSTeZY9kJ7JuPySi5DliO3PuJicKZsd083mWPZywTtKe/rFXzl8koyxLI9ue8ZF4MzZbtvRjiOmtKm7Yk7Xg/lNWcVct8zLgZnynbfjHAcNSXaMxl5KEsfGWLZm1z2jIvBmbLdNyMcR03p1+0p7+sVFLi8lQyxbExuesbL+FiZ4JVBvtPms2N7oszruWSOZUtyx2u8jI+VCV4Z5zttMrRnPl7PJXMsW5I7XuNocLJs98o432mT+Wl7Xl/WK3gkL2bpJnMsm5HbSRyNT5YJLhnnO20ytGdKjo8moyw7katd42t8uEwYjwv3gTOhPVNyfDQZZdmG3Evia3y4TBiPC/eBM/lde16f1Suo5PtuMs2yAbnRZ3zJcEsHmTASLxEzp0F7ZuX4dDLqyNLkLp+JMP4JmTASLxEzp0F7ZuX7dDLtyKLkFl8TweUTMqQvjoLGzuFH7Xl9U6+gibyeZZBMO7IcOf9dIrh8Qob0xVHQ2DnQnom5P6AMPLIQOfmRz38PIl+x9JEhHXEUMXMatOf65B3OPGpdX0NmHlmCnPnI15/iuHxIhrTGV9DYOfyiPc8HdcyW5I4dKZPFFhcy88y05Jxn7n6N4/UhmVMfd3GTJ0B7vk5OHppHresrydgzE5ITnjnd/XsE+Zalm8ypjLu4yRPYoj1nIEeaJI9kvcWLjD0zFTnbmZP8uyWa1+dkTk3chQ6fwOvteX1Qr4SSby2USn27asjka35OznPNVeGnII5flFHlRIie/2tZ21MmbJlKssviS4Zf8xNyhms+PS5wJ1+0jJBRdwnywid+av32vJKfkqde98ZKMl/yGvmu5JMssLzD/aMyUBLnna/8zrvteX1NEpomstfiTuZ/TRD5ytd8VbMmQtB3g8beeflzv0B7bpomstcSRL5yFxcy8y53ZJnlNfJdy4o2uMIT2nPTtJLtljjyocdUkl2PKZCVlpf99usuNrjCkxfbU16TxKWPy5B68rk380jWW14mX7csZ/XzV6A9d0wfGWJ5gXwxOjVki+UnZjjDiKUPX4f23C4jHEe1kk/7psnIXkdyDMtC1j15i7faU16TxGWEjLL8hJyhL31kiOWH5jlJq3VP3oL23C6DZJrl5+Q8hQySaZbfksNYVrHosRvRnntlnAy05CEXt/zcbOeptOixG73SnvKUJC4uZKYlA7myZQZyJMsSVjxzO9pzoziSyZa9yWUt85CDWea33IG70J4bxZFMPrIrueaRecjBLPNb7sBd4ttT3pHExZcMt+xKrmmZjRzPMrm1TtuL9twlEeQTlv3IBS0TkhMemdlCRx1Ae+6SIPIVy07kapZpyTktM1voqAOC21MekcQliHzlyB7kUkdmJke1TGuVc46hPbdIKPnWkdXJdY7MTw5smdD8J3RCe26RaPK5I+uSixxZgpz5yGwmP56fyPaURyRBeYd89MiK5ApHFiInPzKVmc/mivZcP6+R7x5Zixz+yHLk/EfmMe3BvNGe6+dN8ukjq5BjH1mU3OKIO5lvqdGxZU1h7SkvSILyPjnAmZnJUc8sTe5yxJFMPlKjY8uaaM/F8xNyhjNzkkOe2YDc6MwgmSZ51Lp+WbTn4vkVOcaZ2cjxzmxD7nWmm8z5zKPW9cuKaU95PhKU35LDXDMDOdI1m5HbXdNE9t7lUev6ZdGeK2cGcqRrfkhOcs2W5I5fc0eWPeZR6/pl0Z7LZh5yMMnL5OvXbE/uO56vYx+1rl9WQHvK25GgTEXO9plo8rnPJCG3Hsnp7t/vtK5fFu25bCYkJ/xMBPnEZxKSF2iNKP8qmhYvjvZcMzOTo37NOBl4l8zkKWryVc2aU9PixfH/e66ZyclpH1NDtjwGV/I41zxqWt+0eHEx7bkW+XvPn1XIsV8LfDU9b9PixdGeiCf/RcUFEZoeuWnx4mhPvEX+u3IMQjW9dtPixdGeeJ38B9YXvKbp5ZsWL472xATkP7m74H3yJ7CUNS1eHO0J4F5rG7auXxntCeBeaxu2rl8Z7QngXmsbtq5fGe0J4F5TGzYtXh/tCeBeUyE2LV4f7QngXlMhNi1eH+0J4F5TITYtXh/tCeBeUyE2LV4f7QngXlMhNi1eH+0J4F5TITYtXh/tCeBeUyE2LV4f7QngXlMhNi1eH+0J4F5TITYtXh/tCeBeUyE2LV4f7QngXn0h1q/cBe0J4F59J9av3AXtCaCoshYrl22E9gRQVFmLlcs2QnsCKKqsxcplG6E9ARRV1mLlso3QngCKKmuxctlGaE8ARZW1WLlsI7QngKLKWqxcthHaE0BRZS1WLtsI7QmgqKYWa9Zsh/YEUFTTjDVrtkN7AiiqacaaNduhPQEU1TRjzZrt0J4AimqasWbNdmhPAEU1zVizZju0J4CimmasWbMd2hNAUU0z1qzZDu0JoKimGWvWbIf2BFBU04w1a7ZDewIoemzGxwWboj0BFD2W4+OCTdGeAJ6Uy/H669cFm6I9ATwp92P5133RngCelPux/Ou+aE8AT8r9WP51X7QngCflfiz/ui/aE8CTcj+Wf90X7QngSaEfCz/tjvYE8KRQkYWfdkd7AnhSqMjCT7ujPQE8KfTj9afPX7dGewIoKvdj+det0Z4Aisr9WP51a7QngKJyP5Z/3RrtCaCo3I/lX7dGewIoKvRj4acEaE8ARYWKLPyUAO0JoKhQkYWfEqA9ARQVKrLwUwK0J4B75X4s/7o72hPAvXI/ln/dHe0J4F65H8u/7o72BHCv3I/lX3dHewK4V+jHwk850J4Abkg/Wq4KP+VAewK4Ue7H8q8J0J4AbpT7sfxrArQngBvlfiz/mgDtCeBGuR/LvyZAewL45rEcHxfsjvYE8E25HMu/5kB7Avim3I/lX3OgPQF8kHK0iPKvOdCeAD48luPjggRoTwAfHsvxcUECtCeAD4/l+LggAdoTwL+kGS1CfrWkRHsC+NdjMz4uyIH2BPCvx3J8XJAD7QngQprR8ulxQQ60J4CLmmasWZMA7QngoqYZa9YkQHsC+Etq0fLpcUEatCeAv2qasWZNDrQngL9qmrFmTQ60J4A/pBYtX9WsyYH2BPBHZS1WLkuA9gTwR00tyhpLYrQngOparFmTBu0JoLoWK5flQHsCoD170J5AetKJljuVy3KgPYH0KjtRlllyoz2B9Co7sXJZGrQnkJt0ouVO5bI0aE8gt/pOrF+ZA+0J5FbZibLMkh7tCSQmhWi5U7ksE9oTSKy+E+tXpkF7AonVd2L9yjRoTyArKUTLHVlmAe0J5FVfiPUrM6E9gazqO7F+ZSa0J5BSUyE2LU6D9gRSqi9EWWnBH7QnkI+0oaWgfmUytCeQT1MhNi3OhPYE8qkvRFlpwV+0J5CMtKGloH5lPrQnkExTITYtTob2BJKpL0RZacEF7QlkIm1oKahfmRLtCWTSVIhNi/OhPYE0pA0tBbLSgn/RnkAaTW3YtDgl2hNIo74QZaUFH2hPIAdpQ0tB/crEaE8gh6ZCbFqcFe0J5FBfiLLSgm9oTyABaUNLQf3K3GhPIIH6QpSVFtygPYHdSRta7sgyC+7RnsDu6gtRVlpwj/YEdldZiLLMgiLaE9iaFKLlTuUy/EV7Alur7ERZZsET2hPYWk0nyhoLKtCewL6kEy2fZMERVKA9gX3VdKKssaAO7QlsSjrR8kkWWFCN9gQ29ViLssCCFrQnsKlyM8qvR9CC9gR2JLVouZKfjqAR7Qns6K4Z5d/PoB3tCWxHmtHy9R/PoAvtCWxHyrEc9KI9ge1IPxaCAbQnsBfpx7tgGO0J7EVa8jNwQnsCe5GulMAP7QnsReryCALQnsB2KM1X0J4A0IP2BIAetCcA9KA9AaAH7QkAPWhPAOhBewJAD9oTAHrQngDQg/YEgB60JwD0oD0BoAftCQA9aE8A6EF7AkAP2hMAetCeANCD9gSAHrQnAPSgPQGg3X///T+sPUeYgCPyugAAAABJRU5ErkJggg==;" vertex="1" parent="1">
          <mxGeometry x="360" y="70" width="139" height="128" as="geometry"/>
        </mxCell>
        <mxCell id="-RRnOlOg4LKk6MgqfMpy-3" value="*.redo" style="verticalLabelPosition=bottom;html=1;verticalAlign=top;align=center;strokeColor=none;fillColor=#00BEF2;shape=mxgraph.azure.sql_reporting;" vertex="1" parent="1">
          <mxGeometry x="260" y="270" width="40" height="50" as="geometry"/>
        </mxCell>
        <mxCell id="-RRnOlOg4LKk6MgqfMpy-18" style="edgeStyle=none;rounded=0;orthogonalLoop=1;jettySize=auto;html=1;" edge="1" parent="1" source="-RRnOlOg4LKk6MgqfMpy-4" target="-RRnOlOg4LKk6MgqfMpy-11">
          <mxGeometry relative="1" as="geometry"/>
        </mxCell>
        <mxCell id="-RRnOlOg4LKk6MgqfMpy-19" value="1. read from redo.1&lt;br&gt;thinify it" style="text;html=1;align=center;verticalAlign=middle;resizable=0;points=[];;labelBackgroundColor=#ffffff;" vertex="1" connectable="0" parent="-RRnOlOg4LKk6MgqfMpy-18">
          <mxGeometry x="-0.191" y="-1" relative="1" as="geometry">
            <mxPoint x="22" y="19.5" as="offset"/>
          </mxGeometry>
        </mxCell>
        <mxCell id="-RRnOlOg4LKk6MgqfMpy-4" value="*.redo.1" style="verticalLabelPosition=bottom;html=1;verticalAlign=top;align=center;strokeColor=none;fillColor=#00BEF2;shape=mxgraph.azure.sql_reporting;" vertex="1" parent="1">
          <mxGeometry x="380" y="270" width="40" height="50" as="geometry"/>
        </mxCell>
        <mxCell id="-RRnOlOg4LKk6MgqfMpy-6" value="*.redo.2" style="verticalLabelPosition=bottom;html=1;verticalAlign=top;align=center;strokeColor=none;fillColor=#00BEF2;shape=mxgraph.azure.sql_reporting;" vertex="1" parent="1">
          <mxGeometry x="510" y="270" width="40" height="50" as="geometry"/>
        </mxCell>
        <mxCell id="-RRnOlOg4LKk6MgqfMpy-7" value="*.redo.thin" style="verticalLabelPosition=bottom;html=1;verticalAlign=top;align=center;strokeColor=none;fillColor=#00BEF2;shape=mxgraph.azure.sql_reporting;" vertex="1" parent="1">
          <mxGeometry x="260" y="380" width="40" height="50" as="geometry"/>
        </mxCell>
        <mxCell id="-RRnOlOg4LKk6MgqfMpy-8" value="*.redo.1.thining" style="verticalLabelPosition=bottom;html=1;verticalAlign=top;align=center;strokeColor=none;fillColor=#00BEF2;shape=mxgraph.azure.sql_reporting;" vertex="1" parent="1">
          <mxGeometry x="373" y="510" width="40" height="50" as="geometry"/>
        </mxCell>
        <mxCell id="-RRnOlOg4LKk6MgqfMpy-14" style="edgeStyle=none;rounded=0;orthogonalLoop=1;jettySize=auto;html=1;entryX=1;entryY=0.58;entryDx=0;entryDy=0;entryPerimeter=0;" edge="1" parent="1" source="-RRnOlOg4LKk6MgqfMpy-11" target="-RRnOlOg4LKk6MgqfMpy-8">
          <mxGeometry relative="1" as="geometry"/>
        </mxCell>
        <mxCell id="-RRnOlOg4LKk6MgqfMpy-20" value="2. write 2 redo.1.thining" style="text;html=1;align=center;verticalAlign=middle;resizable=0;points=[];;labelBackgroundColor=#ffffff;" vertex="1" connectable="0" parent="-RRnOlOg4LKk6MgqfMpy-14">
          <mxGeometry x="0.3327" relative="1" as="geometry">
            <mxPoint x="30" y="-6" as="offset"/>
          </mxGeometry>
        </mxCell>
        <mxCell id="-RRnOlOg4LKk6MgqfMpy-22" style="edgeStyle=none;rounded=0;orthogonalLoop=1;jettySize=auto;html=1;entryX=1;entryY=1;entryDx=0;entryDy=0;entryPerimeter=0;" edge="1" parent="1" source="-RRnOlOg4LKk6MgqfMpy-11" target="-RRnOlOg4LKk6MgqfMpy-21">
          <mxGeometry relative="1" as="geometry"/>
        </mxCell>
        <mxCell id="-RRnOlOg4LKk6MgqfMpy-23" value="3. mv *.thining 2 *.thin" style="text;html=1;align=center;verticalAlign=middle;resizable=0;points=[];;labelBackgroundColor=#ffffff;" vertex="1" connectable="0" parent="-RRnOlOg4LKk6MgqfMpy-22">
          <mxGeometry x="0.3677" y="2" relative="1" as="geometry">
            <mxPoint x="33.5" y="-2.5" as="offset"/>
          </mxGeometry>
        </mxCell>
        <mxCell id="-RRnOlOg4LKk6MgqfMpy-11" value="thiner" style="outlineConnect=0;dashed=0;verticalLabelPosition=bottom;verticalAlign=top;align=center;html=1;shape=mxgraph.aws3.emr_engine;fillColor=#F58534;gradientColor=none;" vertex="1" parent="1">
          <mxGeometry x="630" y="440" width="82.5" height="60" as="geometry"/>
        </mxCell>
        <mxCell id="-RRnOlOg4LKk6MgqfMpy-21" value="*.redo.1.thin" style="verticalLabelPosition=bottom;html=1;verticalAlign=top;align=center;strokeColor=none;fillColor=#CCCCFF;shape=mxgraph.azure.sql_reporting;" vertex="1" parent="1">
          <mxGeometry x="380" y="380" width="40" height="50" as="geometry"/>
        </mxCell>
      </root>
    </mxGraphModel>
  </diagram>
</mxfile>
